<?xml version="1.0" standalone="no"?>
<!DOCTYPE svg PUBLIC "-//W3C//DTD SVG 20010904//EN"
 "http://www.w3.org/TR/2001/REC-SVG-20010904/DTD/svg10.dtd">
<svg version="1.0" xmlns="http://www.w3.org/2000/svg"
 width="1841.000000pt" height="428.000000pt" viewBox="0 0 1841.000000 428.000000"
 preserveAspectRatio="xMidYMid meet">

<g transform="translate(0.000000,428.000000) scale(0.100000,-0.100000)"
fill="#000000" stroke="none">
<path d="M2411 3569 c-120 -60 -169 -168 -158 -352 16 -283 146 -427 385 -427
72 0 74 -1 61 -20 -189 -272 -319 -492 -319 -540 0 -11 -3 -20 -7 -19 -5 0
-253 295 -553 655 -300 359 -548 654 -552 654 -4 0 -33 -30 -64 -67 -169 -200
-207 -334 -134 -480 17 -34 126 -175 261 -338 l232 -279 -49 -41 c-91 -75
-245 -230 -294 -296 -66 -88 -117 -199 -137 -294 -20 -102 -11 -173 67 -478
32 -128 60 -238 62 -246 2 -10 -28 -24 -104 -49 l-108 -35 0 -93 0 -94 349 0
348 0 42 153 c24 83 48 172 55 196 l13 45 -151 250 c-159 265 -216 384 -216
452 0 71 59 173 164 280 l91 93 630 -754 c346 -415 635 -755 641 -755 17 0 99
95 134 155 71 125 80 284 23 407 -45 96 -65 122 -338 453 -135 164 -245 303
-245 311 0 25 53 160 105 269 29 61 107 198 173 305 l120 195 90 3 91 3 13 57
c7 31 13 104 13 162 0 140 -28 232 -88 294 -60 62 -113 76 -294 76 -195 0
-223 16 -264 152 -12 37 -22 68 -23 68 -2 0 -31 -14 -65 -31z"/>
<path d="M7367 2820 c-175 -31 -264 -154 -327 -453 l-23 -107 -98 0 c-111 0
-97 11 -119 -95 -6 -27 -13 -58 -16 -67 -5 -16 4 -18 96 -18 92 0 101 -2 96
-17 -5 -19 -226 -1062 -226 -1069 0 -2 49 -4 110 -4 105 0 110 1 115 23 3 12
50 236 105 497 55 261 105 496 111 523 l11 47 119 0 118 0 10 38 c5 20 12 53
16 72 4 19 9 43 11 53 5 15 -5 17 -115 17 -67 0 -121 3 -121 6 0 4 12 59 26
123 44 198 82 241 214 241 l78 0 16 71 c21 94 20 106 -6 112 -46 12 -154 15
-201 7z"/>
<path d="M10271 2693 c-13 -65 -26 -128 -29 -140 -4 -23 -3 -23 106 -23 97 0
111 2 116 18 2 9 14 62 25 117 12 55 23 110 26 123 5 22 4 22 -108 22 l-113 0
-23 -117z"/>
<path d="M4437 2714 c-222 -53 -357 -221 -357 -443 0 -206 80 -301 390 -461
177 -92 238 -133 280 -192 40 -55 53 -109 47 -194 -12 -166 -122 -263 -309
-272 -169 -8 -285 52 -347 181 -17 34 -33 83 -37 110 l-6 47 -115 0 -115 0 7
-52 c31 -248 168 -406 393 -453 90 -20 265 -19 355 1 217 48 368 190 408 383
6 30 9 98 7 150 -9 209 -105 313 -458 492 -222 113 -281 182 -267 315 14 141
121 224 287 224 94 0 163 -23 217 -73 54 -50 78 -94 92 -172 6 -32 11 -60 11
-62 0 -2 50 -3 110 -3 l110 0 0 40 c0 104 -45 220 -114 297 -95 105 -230 154
-420 152 -61 0 -137 -7 -169 -15z"/>
<path d="M5894 2262 c-197 -59 -338 -200 -425 -426 -92 -238 -97 -502 -14
-666 90 -178 330 -252 575 -178 119 36 209 103 282 210 32 48 78 138 78 154 0
2 -51 4 -113 4 l-113 0 -17 -35 c-24 -50 -94 -123 -142 -147 -56 -30 -180 -36
-240 -14 -49 19 -97 68 -121 124 -19 46 -29 161 -20 236 l7 56 408 0 408 0 18
101 c50 288 -34 493 -235 570 -78 31 -251 36 -336 11z m239 -176 c18 -7 45
-26 60 -42 53 -53 61 -80 62 -194 l0 -105 -294 -3 -293 -2 6 27 c11 49 84 187
121 230 20 23 62 55 97 72 52 26 73 31 135 31 40 0 88 -6 106 -14z"/>
<path d="M8090 2265 c-244 -67 -412 -259 -491 -561 -33 -126 -34 -337 -2 -439
40 -129 123 -220 240 -266 80 -31 260 -38 352 -14 218 56 372 216 454 470 41
128 51 192 52 330 0 107 -4 142 -22 200 -41 130 -123 220 -240 266 -76 29
-260 36 -343 14z m254 -199 c93 -51 133 -153 123 -321 -16 -265 -128 -491
-282 -565 -40 -20 -66 -25 -130 -25 -70 0 -86 4 -128 28 -120 70 -155 256 -96
507 49 208 179 371 320 399 62 13 147 3 193 -23z"/>
<path d="M9750 2273 c-118 -20 -239 -93 -310 -187 -24 -31 -43 -56 -45 -56 -1
0 6 42 16 93 30 150 37 138 -87 135 l-107 -3 -48 -240 c-26 -132 -84 -411
-128 -619 -45 -209 -81 -385 -81 -393 0 -10 25 -13 110 -13 61 0 110 2 110 4
0 25 144 677 159 720 39 112 104 200 189 256 56 37 158 70 217 70 l43 0 22 98
c12 53 24 107 27 120 5 20 2 22 -28 21 -19 -1 -45 -4 -59 -6z"/>
<path d="M11308 2261 c-76 -25 -115 -50 -178 -117 l-53 -56 7 39 c4 21 9 60
13 86 l6 48 -108 -3 -108 -3 -93 -445 c-51 -245 -111 -530 -132 -633 l-40
-188 112 3 111 3 81 382 c99 468 122 537 210 627 125 128 322 109 353 -34 14
-67 7 -116 -93 -587 l-82 -393 110 0 111 0 69 333 c38 182 79 373 91 423 53
212 153 328 294 341 75 7 102 0 145 -38 46 -40 60 -104 45 -197 -10 -68 -165
-812 -175 -844 -5 -16 5 -18 105 -18 96 0 110 2 115 18 3 9 44 202 92 427 97
459 110 561 79 659 -36 114 -124 175 -267 184 -139 8 -262 -39 -360 -140 -49
-49 -59 -56 -64 -41 -19 57 -50 107 -80 129 -71 55 -207 70 -316 35z"/>
<path d="M13759 2266 c-88 -19 -181 -67 -235 -122 -45 -47 -99 -146 -110 -201
l-6 -33 106 0 107 0 18 44 c54 124 176 184 321 156 62 -12 95 -32 128 -80 25
-38 30 -133 11 -218 l-12 -49 -166 -6 c-184 -6 -249 -16 -364 -53 -136 -45
-231 -123 -279 -231 -33 -72 -37 -228 -9 -304 28 -75 80 -132 149 -166 53 -26
65 -28 177 -28 154 1 211 21 299 106 33 33 61 59 62 59 1 0 -2 -17 -6 -37 -4
-21 -10 -55 -13 -76 l-6 -38 107 3 106 3 14 70 c7 39 47 230 89 425 41 195 78
384 80 420 14 176 -64 297 -222 346 -69 22 -263 27 -346 10z m291 -674 c0 -37
-41 -178 -69 -239 -73 -155 -225 -238 -372 -203 -181 44 -181 303 0 394 82 42
192 61 369 65 64 1 72 -1 72 -17z"/>
<path d="M15341 2265 c-83 -24 -148 -64 -207 -129 -58 -63 -59 -63 -45 11 5
26 12 63 15 81 l6 32 -109 0 -109 0 -6 -42 c-4 -24 -87 -421 -185 -883 l-178
-840 105 -3 c57 -1 107 -1 110 2 2 3 33 141 68 308 35 167 66 313 69 326 5 21
8 19 38 -25 90 -134 320 -174 512 -88 173 77 317 274 381 521 35 131 44 336
20 438 -46 195 -159 294 -345 302 -57 3 -104 -1 -140 -11z m161 -204 c80 -55
114 -157 105 -316 -14 -259 -137 -498 -290 -566 -72 -32 -184 -32 -245 -1 -91
48 -128 142 -119 301 12 210 86 402 196 512 82 82 125 99 237 96 66 -2 87 -6
116 -26z"/>
<path d="M16825 2267 c-77 -20 -151 -65 -211 -130 -60 -64 -60 -63 -40 51 l13
72 -108 0 -108 0 -11 -57 c-14 -73 -349 -1660 -357 -1690 -5 -23 -4 -23 106
-23 61 0 111 2 111 4 0 11 131 633 136 646 4 11 11 4 25 -21 62 -121 255 -180
433 -134 283 74 486 388 503 780 11 250 -62 412 -214 482 -67 31 -199 40 -278
20z m122 -188 c142 -53 182 -296 93 -571 -82 -256 -244 -388 -431 -349 -65 14
-120 55 -152 114 -20 38 -22 56 -22 177 0 115 4 149 27 232 59 210 159 349
285 394 46 16 161 18 200 3z"/>
<path d="M10170 2208 c-6 -29 -65 -307 -130 -618 -66 -311 -122 -573 -124
-582 -4 -16 6 -18 108 -18 l112 0 133 628 c72 345 132 630 131 635 0 4 -49 7
-109 7 l-109 0 -12 -52z"/>
<path d="M12671 1187 c-18 -84 -34 -163 -38 -175 -5 -22 -3 -22 104 -22 l108
0 34 162 c18 89 36 168 38 175 4 10 -20 13 -104 13 l-110 0 -32 -153z"/>
</g>
</svg>
