<?xml version="1.0" encoding="utf-8"?>
<!-- Generator: Adobe Illustrator 26.0.2, SVG Export Plug-In . SVG Version: 6.00 Build 0)  -->
<svg version="1.1" xmlns="http://www.w3.org/2000/svg" xmlns:xlink="http://www.w3.org/1999/xlink" x="0px" y="0px"
	 viewBox="0 0 368.8 95.3" style="enable-background:new 0 0 368.8 95.3;" xml:space="preserve">
<style type="text/css">
	.st0{enable-background:new    ;}
	.st1{fill:#231F20;}
	.st2{fill:#666666;}
</style>
<g id="א_00000153666256277441741520000017045014079553443994_" class="st0">
	<g id="א">
		<g>
			<path class="st1" d="M39.8,50l3.6-7.7l6.1,5.2c4.2-5.4,6.3-9.5,6.3-12.5c0-2.7-1.1-5.2-3.2-7.4c-0.3-0.4-2.3-2.1-6-5
				c-2.2-1.7-3.3-3.3-3.3-4.8l-1.1-0.4c-1.8,1.2-3.5,3-4.9,5.3c-1.6,2.5-2.3,4.8-2.3,6.8c0,2.7,0.5,4.9,1.7,6.6
				c0.7,1.1,2.4,2.7,5,4.7l-3.6,7.5L14.5,26c-2.6-2.5-3.9-5.1-3.9-7.8c0-0.4,0-0.7,0.1-1.1l-0.9-0.3c-1.9,1.2-3.6,3.1-5.1,5.8
				c-1.6,2.7-2.3,5.2-2.3,7.4c0,3.6,1,6.6,3.1,9.2c0.2,0.3,2.7,2.6,7.5,7c-6,5.4-9,11.8-9,19.1c0,3.5,1,7,3,10.8
				C3.6,78.4,1.4,81.9,0,86.5L0.7,87c2.6-2.8,5.3-4.2,8.4-4.1c0.7,0,1.8,0.3,3.2,0.8c1.4,0.5,2.4,0.8,3.2,0.8c5.8,0,8.8-3,8.8-9.1
				c0-2.3-2.1-5.8-6.3-10.4c-4.2-4.6-6.3-8.5-6.3-11.5c0-1.9,0.8-3.8,2.3-5.7l27.7,27.5c4,4,5.9,7.3,5.9,10.1l0,0.5l0.9,0.1
				c1.9-1.3,3.6-3.2,5.1-5.8c1.4-2.6,2.2-5,2.2-7.2c0-4.2-1.9-8.5-5.6-12.9C46.6,56.7,43.2,53.3,39.8,50z"/>
		</g>
	</g>
</g>
<g id="Seforim.app_00000170983974382050413370000004104286426044337820_" class="st0">
	<g id="Seforim.app_00000118375422112273243650000004476837149052626360_">
		<g>
			<path class="st1" d="M82,35.9c5.1,0,7.7,2.7,8,7.6h5.6c0.1-6.6-3.9-12.2-13.2-12.2c-8.3,0-13.2,5-13.2,11.6
				c0,5.5,2.9,8,10.2,11.5c5.6,2.7,7.8,4.7,7.8,8.7c0,4.9-3.4,7.5-8.3,7.5c-5.1,0-8.5-2.7-9.1-8.5h-5.6c0.4,7.3,4.2,13,14.2,13
				c9.8,0,14.9-5.6,14.9-12.9c0-5.3-2.5-8.6-10.9-12.6c-5.1-2.5-7.2-3.9-7.2-7.3C75,38.4,77.6,35.9,82,35.9z M114.9,42.6
				c-11.6,0-16.2,12.2-16.2,20.5c0,7,3.2,12.1,11.1,12.1c8.5,0,11.9-5.4,13.6-9.8h-5.6c-1.1,2-2.7,5.3-7.5,5.3c-4.4,0-6-3.2-6-7.4
				c0-1.2,0.2-2.4,0.3-3.3h20.1c0.6-2.4,0.9-4.6,0.9-6.5C125.6,47.6,122.4,42.6,114.9,42.6z M119.9,56.1h-14.4
				c1.1-4.5,3.9-9.1,8.8-9.1c4.2,0,5.9,2.6,5.9,6.5C120.2,54.5,120.1,55.2,119.9,56.1z M141.6,43.2l0.8-4c0.6-3.1,1.7-5.2,4.5-5.2
				c1,0,1.9,0.1,2.5,0.3l1-4.5c-0.7-0.3-2.4-0.5-3.7-0.5c-5.9,0-8.4,3.8-9.7,9.6l-0.9,4.4h-4.9l-1,4.5h4.9l-5.7,27h5.5l5.7-27h6
				l1-4.5H141.6z M163.6,42.6c-11.8,0-16.7,11.7-16.7,20.2c0,7.1,3.5,12.4,11.5,12.4c11.8,0,16.5-11.5,16.5-20.6
				C174.9,47.6,171.2,42.6,163.6,42.6z M159,70.6c-4.6,0-6.3-3.2-6.3-7.9c0-6.4,3.1-15.4,10.2-15.4c4.3,0,6.3,2.7,6.3,7.5
				C169.2,61,166.3,70.6,159,70.6z M189.2,49.3c0.5-2.3,1-5.3,1.1-6.2h-5.4c-0.4,2.1-1.1,5.6-2.1,10.7l-4.4,20.8h5.6l3.2-15.1
				c1.5-7.1,5.3-10.9,12-11.1l1.3-5.8C195.3,42.7,191.6,45.1,189.2,49.3z M208.8,29.6l-1.4,6.9h5.6l1.4-6.9H208.8z M199.3,74.6h5.6
				l6.7-31.5H206L199.3,74.6z M250.7,42.6c-4.6,0-7.8,2.5-9.7,5.3c-0.4-2.7-2.3-5.3-6.7-5.3c-4.3,0-6.9,2.1-9,5
				c0.3-1.4,0.6-3.5,0.8-4.5h-5.4c-0.3,1.5-0.8,4.1-2,9.8l-4.6,21.7h5.5l3.7-17.6c1.3-6.2,4.2-9.7,8.3-9.7c4.1,0,4.6,3.2,3.7,7.4
				l-4.2,19.8h5.5l3.8-18.2c1.1-5.2,3.6-9.1,8.2-9.1c4.1,0,4.6,3.4,3.8,7.1l-4.3,20.2h5.5l4.3-20.5
				C259.8,45.5,255.8,42.6,250.7,42.6z"/>
		</g>
	</g>
	<polygon class="st2" points="266.4,74.7 268.2,65.9 262.8,65.9 260.9,74.7 	"/>
	<path class="st2" d="M299.9,54.5c1.9-8.7-2.7-11.9-10-11.9c-8.4,0-11.5,4.4-12.6,9.2l0,0h5.6l0,0c0.8-2.4,2.2-5,6.6-5
		c5.3,0,5.9,3.3,5.1,7l-0.4,1.6c-3.2,0-4.8,0.1-7.2,0.3c-8.8,0.7-13.6,4.6-13.6,11.2l0,0c0,4.5,2.7,8.4,8.4,8.4c5,0,7.6-2,9.3-4.5
		c-0.4,1.8-0.5,2.9-0.7,4h5.4c0.2-1.5,0.9-4.7,1.4-7.2L299.9,54.5z M293.2,60.7c-1.1,4.9-3.1,10-9.2,10c-3.3,0-4.8-2-4.8-4.6l0,0
		c0-4.2,3.6-6.1,8.1-6.5c2-0.2,3.9-0.3,6.1-0.2L293.2,60.7z"/>
	<path class="st2" d="M319.2,75.2c11.2,0,15.8-12.6,15.8-20.9l0,0c0-7.4-3.5-11.6-9.5-11.6c-4.6,0-7.6,2.3-9.5,5.3
		c0.3-1.6,0.7-3.7,0.8-4.7h-5.4c-0.3,1.7-0.9,4.9-1.9,9.2l-7.4,34.7h5.5l3.5-16.6C312.2,73.1,314.8,75.2,319.2,75.2z M318.9,70.5
		c-5.8,0-6.9-4.9-5.5-11.5l0,0c1.4-6.6,4.6-11.7,10-11.7c3.7,0,5.7,2.4,5.7,7.7l0,0C329.2,60,326.4,70.5,318.9,70.5z"/>
	<path class="st2" d="M353,75.2c11.2,0,15.8-12.6,15.8-20.9l0,0c0-7.4-3.5-11.6-9.5-11.6c-4.6,0-7.6,2.3-9.5,5.3
		c0.3-1.6,0.7-3.7,0.8-4.7h-5.4c-0.3,1.7-0.9,4.9-1.9,9.2L336,87.1h5.5l3.5-16.6C345.9,73.1,348.6,75.2,353,75.2z M352.7,70.5
		c-5.8,0-6.9-4.9-5.5-11.5l0,0c1.4-6.6,4.6-11.7,10-11.7c3.7,0,5.7,2.4,5.7,7.7l0,0C362.9,60,360.2,70.5,352.7,70.5z"/>
</g>
</svg>
