<?xml version="1.0" encoding="utf-8"?>
<!-- Generator: Adobe Illustrator 26.0.2, SVG Export Plug-In . SVG Version: 6.00 Build 0)  -->
<svg version="1.1" xmlns="http://www.w3.org/2000/svg" xmlns:xlink="http://www.w3.org/1999/xlink" x="0px" y="0px"
	 viewBox="0 0 343 95.3" style="enable-background:new 0 0 343 95.3;" xml:space="preserve">
<style type="text/css">
	.st0{enable-background:new    ;}
	.st1{fill:#231F20;}
	.st2{fill:#999999;}
</style>
<g id="א_00000153666256277441741520000017045014079553443994_" class="st0">
	<g id="א">
		<g>
			<path class="st1" d="M33.5,52.5l3-6.3l5,4.3c3.5-4.5,5.2-7.9,5.2-10.3c0-2.2-0.9-4.3-2.7-6.1c-0.2-0.3-1.9-1.7-4.9-4.1
				c-1.8-1.4-2.7-2.7-2.7-3.9l-0.9-0.3c-1.5,1-2.9,2.5-4,4.4c-1.3,2.1-1.9,3.9-1.9,5.6c0,2.3,0.4,4.1,1.4,5.4c0.6,0.9,2,2.2,4.1,3.9
				l-3,6.2L12.6,32.7c-2.2-2.1-3.2-4.2-3.2-6.5c0-0.3,0-0.6,0.1-0.9l-0.8-0.2c-1.6,1-3,2.6-4.3,4.8c-1.3,2.3-1.9,4.3-1.9,6.1
				c0,3,0.8,5.5,2.5,7.6c0.2,0.2,2.3,2.2,6.2,5.8c-4.9,4.4-7.4,9.7-7.4,15.8c0,2.9,0.8,5.8,2.5,8.9c-2.6,1.9-4.5,4.7-5.6,8.5
				l0.6,0.4c2.1-2.3,4.4-3.4,6.9-3.4c0.6,0,1.5,0.2,2.6,0.7c1.1,0.4,2,0.7,2.6,0.7c4.8,0,7.2-2.5,7.3-7.5c0-1.9-1.7-4.8-5.2-8.6
				c-3.5-3.8-5.2-7-5.2-9.5c0-1.6,0.7-3.1,1.9-4.7l22.9,22.7c3.3,3.3,4.9,6.1,4.9,8.3l0,0.4l0.7,0.1c1.6-1.1,3-2.6,4.2-4.8
				c1.2-2.1,1.8-4.1,1.8-5.9c0-3.5-1.5-7-4.6-10.6C39.2,58.1,36.4,55.3,33.5,52.5z"/>
		</g>
	</g>
</g>
<g id="Seforim.app_00000170983974382050413370000004104286426044337820_" class="st0">
	<g id="Seforim.app">
		<g>
			<path class="st1" d="M69.2,40.5c4.8,0,7.3,2.6,7.6,7.2h5.3c0.1-6.2-3.7-11.6-12.6-11.6c-7.9,0-12.5,4.7-12.5,11
				c0,5.2,2.8,7.6,9.7,10.9c5.3,2.6,7.4,4.5,7.4,8.2c0,4.6-3.3,7.1-7.9,7.1c-4.9,0-8.1-2.6-8.6-8.1h-5.4c0.4,7,4,12.4,13.5,12.4
				c9.3,0,14.1-5.4,14.1-12.3c0-5.1-2.4-8.2-10.4-12c-4.9-2.4-6.8-3.7-6.8-6.9C62.5,42.9,65,40.5,69.2,40.5z M100.5,46.8
				c-11,0-15.4,11.6-15.4,19.5c0,6.7,3,11.5,10.5,11.5c8.1,0,11.3-5.1,13-9.3h-5.3c-1,1.9-2.5,5-7.1,5c-4.2,0-5.7-3-5.7-7
				c0-1.2,0.1-2.3,0.3-3.1h19.1c0.6-2.3,0.9-4.4,0.9-6.1C110.6,51.5,107.6,46.8,100.5,46.8z M105.2,59.6H91.5c1-4.2,3.7-8.6,8.4-8.6
				c4,0,5.6,2.5,5.6,6.2C105.5,58.1,105.4,58.8,105.2,59.6z M125.8,47.3l0.8-3.8c0.6-2.9,1.6-5,4.3-5c0.9,0,1.8,0.1,2.4,0.3l1-4.3
				c-0.7-0.3-2.3-0.5-3.5-0.5c-5.6,0-8,3.6-9.2,9.1l-0.9,4.2h-4.6l-0.9,4.3h4.6l-5.4,25.7h5.2l5.4-25.7h5.7l0.9-4.3H125.8z
				 M146.7,46.8c-11.2,0-15.9,11.2-15.9,19.2c0,6.8,3.3,11.8,11,11.8c11.2,0,15.6-11,15.6-19.6C157.5,51.5,154,46.8,146.7,46.8z
				 M142.4,73.4c-4.3,0-6-3.1-6-7.5c0-6.1,3-14.7,9.7-14.7c4.1,0,5.9,2.5,5.9,7.1C152.1,64.3,149.3,73.4,142.4,73.4z M171.1,53.2
				c0.5-2.2,1-5.1,1-5.9H167c-0.4,2-1,5.3-2,10.1l-4.2,19.8h5.3l3-14.3c1.4-6.7,5.1-10.3,11.4-10.5l1.2-5.5
				C176.9,46.9,173.4,49.2,171.1,53.2z M189.7,34.5l-1.4,6.5h5.3l1.4-6.5H189.7z M180.7,77.3h5.3l6.3-29.9H187L180.7,77.3z
				 M229.6,46.8c-4.4,0-7.4,2.4-9.2,5c-0.4-2.6-2.2-5-6.3-5c-4.1,0-6.6,2-8.6,4.8c0.3-1.3,0.6-3.3,0.7-4.3H201
				c-0.3,1.4-0.8,3.9-1.9,9.3l-4.3,20.6h5.2l3.6-16.7c1.3-5.9,4-9.2,7.9-9.2c3.9,0,4.4,3,3.6,7.1l-4,18.8h5.2l3.6-17.3
				c1-4.9,3.4-8.7,7.8-8.7c3.9,0,4.3,3.3,3.6,6.7l-4,19.2h5.2l4.1-19.4C238.2,49.6,234.4,46.8,229.6,46.8z"/>
		</g>
	</g>
	<polygon class="st2" points="244.4,77.3 246.2,69 241,69 239.3,77.3 	"/>
	<path class="st2" d="M276.3,58.1c1.8-8.3-2.6-11.3-9.5-11.3c-8,0-11,4.2-12,8.7l0,0h5.3l0,0c0.8-2.3,2.1-4.7,6.3-4.7
		c5.1,0,5.6,3.1,4.8,6.7l-0.3,1.5c-3,0-4.6,0.1-6.9,0.3c-8.4,0.7-12.9,4.4-12.9,10.6l0,0c0,4.3,2.6,7.9,8,7.9c4.8,0,7.2-1.9,8.8-4.3
		c-0.4,1.7-0.5,2.7-0.6,3.8h5.1c0.2-1.4,0.9-4.5,1.3-6.8L276.3,58.1z M269.9,64.1c-1,4.7-2.9,9.5-8.7,9.5c-3.2,0-4.5-1.9-4.5-4.4
		l0,0c0-4,3.4-5.8,7.7-6.2c1.9-0.2,3.7-0.3,5.8-0.2L269.9,64.1z"/>
	<path class="st2" d="M294.6,77.8c10.7,0,15.1-12,15.1-19.9l0,0c0-7-3.3-11-9-11c-4.4,0-7.2,2.2-9,5c0.3-1.5,0.7-3.5,0.8-4.5h-5.2
		c-0.3,1.6-0.9,4.7-1.8,8.8l-7,32.9h5.3l3.3-15.8C287.9,75.8,290.4,77.8,294.6,77.8z M294.4,73.3c-5.5,0-6.5-4.6-5.2-10.9l0,0
		c1.3-6.3,4.4-11.1,9.5-11.1c3.5,0,5.4,2.3,5.4,7.3l0,0C304.1,63.4,301.5,73.3,294.4,73.3z"/>
	<path class="st2" d="M326.7,77.8c10.7,0,15.1-12,15.1-19.9l0,0c0-7-3.3-11-9-11c-4.4,0-7.2,2.2-9,5c0.3-1.5,0.7-3.5,0.8-4.5h-5.2
		c-0.3,1.6-0.9,4.7-1.8,8.8l-7,32.9h5.3l3.3-15.8C320,75.8,322.5,77.8,326.7,77.8z M326.5,73.3c-5.5,0-6.5-4.6-5.2-10.9l0,0
		c1.3-6.3,4.4-11.1,9.5-11.1c3.5,0,5.4,2.3,5.4,7.3l0,0C336.2,63.4,333.6,73.3,326.5,73.3z"/>
</g>
</svg>
