<?xml version="1.0" standalone="no"?>
<!DOCTYPE svg PUBLIC "-//W3C//DTD SVG 20010904//EN"
 "http://www.w3.org/TR/2001/REC-SVG-20010904/DTD/svg10.dtd">
<svg version="1.0" xmlns="http://www.w3.org/2000/svg"
 width="241.000000pt" height="241.000000pt" viewBox="0 0 241.000000 241.000000"
 preserveAspectRatio="xMidYMid meet">
<metadata>
Created by potrace 1.14, written by Peter Selinger 2001-2017
</metadata>
<g transform="translate(0.000000,241.000000) scale(0.100000,-0.100000)"
fill="#000000" stroke="none">
<path d="M527 2379 c-117 -100 -217 -306 -211 -439 6 -170 46 -242 223 -410
72 -68 131 -127 131 -131 0 -5 -16 -23 -36 -41 -51 -47 -137 -163 -173 -234
-58 -115 -82 -208 -88 -339 -6 -136 11 -229 66 -346 l29 -63 -60 -60 c-62 -63
-126 -166 -154 -249 -24 -71 -7 -81 50 -29 24 22 68 53 98 68 45 24 65 28 133
28 46 0 93 -6 110 -14 35 -15 38 -16 85 -28 80 -19 195 11 254 66 74 69 104
234 61 332 -32 74 -125 201 -232 315 -10 11 -40 50 -66 86 -122 172 -138 300
-53 426 l24 35 525 -524 c328 -327 538 -544 561 -580 42 -66 66 -128 68 -176
1 -18 4 -35 8 -37 15 -10 77 34 120 86 148 178 192 381 118 549 -64 146 -122
221 -332 428 -97 95 -176 175 -176 178 0 10 120 254 125 254 3 0 18 -11 33
-24 15 -13 59 -51 97 -85 39 -33 73 -61 76 -61 10 0 133 186 162 245 61 123
69 222 24 319 -35 73 -72 116 -184 208 -172 142 -213 186 -213 230 0 26 -38
33 -63 11 -130 -111 -217 -266 -222 -397 -2 -72 18 -167 45 -210 19 -31 86
-100 148 -154 l33 -28 -62 -127 -63 -128 -54 53 c-60 57 -67 64 -193 183 -569
534 -632 598 -665 669 -14 31 -28 84 -31 117 -7 70 -21 75 -76 28z"/>
</g>
</svg>
